<?xml version="1.0" encoding="utf-8"?>
<!-- Generator: Adobe Illustrator 16.0.0, SVG Export Plug-In . SVG Version: 6.00 Build 0)  -->
<!DOCTYPE svg PUBLIC "-//W3C//DTD SVG 1.1//EN" "http://www.w3.org/Graphics/SVG/1.1/DTD/svg11.dtd">
<svg version="1.1" id="Layer_1" xmlns="http://www.w3.org/2000/svg" xmlns:xlink="http://www.w3.org/1999/xlink" x="0px" y="0px"
	 width="100px" height="100px" viewBox="0 0 100 100" enable-background="new 0 0 100 100" xml:space="preserve">
<path fill-rule="evenodd" clip-rule="evenodd" fill="#F4ECCB" stroke="#C3A887" stroke-width="0.06" stroke-linecap="round" stroke-linejoin="round" stroke-miterlimit="10" d="
	M37.24,49.739c0.266-1.007,0.451-2.034,0.66-3.061c1.469,0.328,2.906,0.813,4.38,1.14l-0.06,3.18
	C40.503,50.688,38.92,50.162,37.24,49.739z"/>
<path fill-rule="evenodd" clip-rule="evenodd" fill="#F4ECCB" stroke="#C3A887" stroke-width="0.06" stroke-linecap="round" stroke-linejoin="round" stroke-miterlimit="10" d="
	M36.34,53.459c0.253-1.079,0.515-2.167,0.78-3.24c1.746,0.344,3.297,0.875,5.04,1.26v1.561l0.06,1.5l-0.12,0.42
	C40.182,54.477,38.265,53.896,36.34,53.459z"/>
<polygon fill-rule="evenodd" clip-rule="evenodd" fill="#F4ECCB" stroke="#C3A887" stroke-width="0.06" stroke-linecap="round" stroke-linejoin="round" stroke-miterlimit="10" points="
	36.04,53.818 39.16,54.719 39.22,54.719 40.36,55.02 40.42,55.02 41.26,55.259 41.74,55.439 41.86,55.559 35.68,58.02 35.2,56.699 
	35.2,56.579 35.26,56.279 35.32,56.159 35.86,54.479 35.86,54.419 "/>
<polygon fill-rule="evenodd" clip-rule="evenodd" fill="#F4ECCB" stroke="#C3A887" stroke-width="0.06" stroke-linecap="round" stroke-linejoin="round" stroke-miterlimit="10" points="
	53.26,47.159 53.439,47.819 53.68,48.299 53.68,48.539 52.96,48.359 "/>
<polygon fill-rule="evenodd" clip-rule="evenodd" fill="#F4ECCB" stroke="#C3A887" stroke-width="0.06" stroke-linecap="round" stroke-linejoin="round" stroke-miterlimit="10" points="
	56.2,47.999 56.26,47.879 55.96,49.079 55,48.839 55.061,48.659 55.48,48.539 "/>
<polygon fill-rule="evenodd" clip-rule="evenodd" fill="#F4ECCB" stroke="#C3A887" stroke-width="0.06" stroke-linecap="round" stroke-linejoin="round" stroke-miterlimit="10" points="
	53.68,47.219 54.58,47.459 54.4,48.299 53.98,48.059 53.74,47.639 "/>
<polygon fill-rule="evenodd" clip-rule="evenodd" fill="#F4ECCB" stroke="#C3A887" stroke-width="0.06" stroke-linecap="round" stroke-linejoin="round" stroke-miterlimit="10" points="
	54.641,48.359 54.82,47.519 55.9,47.759 55.359,48.239 54.939,48.419 "/>
<polygon fill-rule="evenodd" clip-rule="evenodd" fill="#F4ECCB" stroke="#C3A887" stroke-width="0.06" stroke-linecap="round" stroke-linejoin="round" stroke-miterlimit="10" points="
	42.64,43.919 42.58,41.819 43.06,41.819 43.06,42.479 43.24,42.479 43.3,43.259 43.12,43.259 43.12,43.919 "/>
<polygon fill-rule="evenodd" clip-rule="evenodd" fill="#F4ECCB" stroke="#C3A887" stroke-width="0.06" stroke-linecap="round" stroke-linejoin="round" stroke-miterlimit="10" points="
	42.58,41.819 42.52,40.019 61.779,45.059 61.48,45.959 61.3,46.379 60.939,47.099 60.58,47.639 60.34,47.879 59.98,47.939 
	58.3,47.939 42.64,44.099 42.64,43.919 43.12,43.919 43.12,43.259 43.3,43.259 43.24,42.479 43.06,42.479 43.06,41.819 "/>
<path fill-rule="evenodd" clip-rule="evenodd" fill="#F4ECCB" stroke="#C3A887" stroke-width="0.06" stroke-linecap="round" stroke-linejoin="round" stroke-miterlimit="10" d="
	M42.82,53.279c11.303,2.758,9.133,1.382,16.8-1.74c0.558,1.602,1.136,3.205,1.68,4.8c-3.86,1.284-4.815,1.822-8.7,0.9H52.48
	l-9.061-1.62L43,55.379l-0.24-0.6L42.82,53.279z"/>
<path fill-rule="evenodd" clip-rule="evenodd" fill="#F4ECCB" stroke="#C3A887" stroke-width="0.06" stroke-linecap="round" stroke-linejoin="round" stroke-miterlimit="10" d="
	M59.92,51.539c0.809-0.282,1.646-0.464,2.46-0.721l0.12,1.44v0.24l1.141,2.94l-0.181,0.239l-1.8,0.48
	C61.1,54.613,60.557,53.057,59.92,51.539z"/>
<path fill-rule="evenodd" clip-rule="evenodd" fill="#F4ECCB" stroke="#C3A887" stroke-width="0.06" stroke-linecap="round" stroke-linejoin="round" stroke-miterlimit="10" d="
	M62.32,49.559v0.3L61.9,50.52l-2.641,0.72l-2.52,1.02L55.359,53.1l-1.68,0.779l-1.38,0.12h-0.06l-0.961,0.12l-1.859-0.301
	l-0.12-0.06l-3.6-0.6h-0.12l-2.76-0.48v-1.739l-0.06-0.061l-0.06-4.08v-0.12l-0.06-2.28c3.539,0.941,7.083,1.836,10.62,2.76
	l-0.3,1.2l0.72,0.18l1.32,0.3l0.96,0.24l0.3-1.2c2.15,0.412,1.729,0.492,3.54,0.36h0.24l0.54-0.24l0.3-0.3l0.72-1.44l0.061-0.3
	l0.359-0.84l1.381,0.3C63.049,46.794,62.708,48.202,62.32,49.559z"/>
<polygon fill-rule="evenodd" clip-rule="evenodd" fill="#82C88E" stroke="#00AB4E" stroke-width="0.06" stroke-linecap="round" stroke-linejoin="round" stroke-miterlimit="10" points="
	53.26,47.159 53.439,47.819 53.68,48.299 53.68,48.539 52.96,48.359 "/>
<polygon fill-rule="evenodd" clip-rule="evenodd" fill="#82C88E" stroke="#00AB4E" stroke-width="0.06" stroke-linecap="round" stroke-linejoin="round" stroke-miterlimit="10" points="
	53.68,47.219 54.58,47.459 54.4,48.299 53.98,48.059 53.74,47.639 "/>
<polygon fill-rule="evenodd" clip-rule="evenodd" fill="#82C88E" stroke="#00AB4E" stroke-width="0.06" stroke-linecap="round" stroke-linejoin="round" stroke-miterlimit="10" points="
	54.641,48.359 54.82,47.519 55.9,47.759 55.359,48.239 54.939,48.419 "/>
<polygon fill-rule="evenodd" clip-rule="evenodd" fill="#82C88E" stroke="#00AB4E" stroke-width="0.06" stroke-linecap="round" stroke-linejoin="round" stroke-miterlimit="10" points="
	56.2,47.999 56.26,47.879 55.96,49.079 55,48.839 55.061,48.659 55.48,48.539 "/>
<path fill-rule="evenodd" clip-rule="evenodd" fill="#F4ECCB" stroke="#C3A887" stroke-width="0.06" stroke-linecap="round" stroke-linejoin="round" stroke-miterlimit="10" d="
	M50.32,58.318c-1.319,0.262-2.594,0.55-3.9,0.841v-1.2l0.12-0.66l-0.18-0.06l-0.18,0.659v1.261l-2.22,0.12h-0.12l-2.1,0.06
	c0.473-0.912,0.744-1.887,1.2-2.819l0.3-0.061L50.2,57.6L50.32,58.318z"/>
</svg>
